<svg xmlns="http://www.w3.org/2000/svg" version="1.1" xmlns:xlink="http://www.w3.org/1999/xlink" xmlns:svgjs="http://svgjs.com/svgjs" width="200" height="200" x="0" y="0" viewBox="0 0 512 512" style="enable-background:new 0 0 512 512" xml:space="preserve" class=""><g><linearGradient xmlns="http://www.w3.org/2000/svg" id="SVGID_1_" gradientUnits="userSpaceOnUse" x1="256" x2="256" y1="512" y2="0"><stop offset="0" stop-color="#5558ff"></stop><stop offset="1" stop-color="#00c0ff"></stop></linearGradient><linearGradient xmlns="http://www.w3.org/2000/svg" id="SVGID_2_" gradientUnits="userSpaceOnUse" x1="256" x2="256" y1="436.837" y2="75.163"><stop offset="0" stop-color="#addcff"></stop><stop offset=".5028" stop-color="#eaf6ff"></stop><stop offset="1" stop-color="#eaf6ff"></stop></linearGradient><g xmlns="http://www.w3.org/2000/svg" id="Cd_1_"><g><g><circle cx="256" cy="256" fill="url(#SVGID_1_)" r="256" data-original="url(#SVGID_1_)"></circle></g></g><g><g><path d="m191.853 408.021c-19.642-8.321-37.294-20.233-52.468-35.406-15.173-15.174-27.085-32.826-35.406-52.467-3.23-7.628-12.034-11.193-19.663-7.96-7.628 3.231-11.191 12.035-7.96 19.663 9.833 23.21 23.901 44.063 41.816 61.978s38.768 31.983 61.978 41.816c1.91.809 3.894 1.192 5.845 1.192 5.843 0 11.396-3.435 13.818-9.153 3.231-7.628-.333-16.431-7.96-19.663zm243.792-227.872c-9.833-23.212-23.902-44.064-41.816-61.978-17.913-17.914-38.766-31.983-61.978-41.816-7.629-3.231-16.432.333-19.663 7.96s.332 16.431 7.96 19.663c19.643 8.321 37.296 20.234 52.468 35.407 15.173 15.172 27.085 32.824 35.406 52.466 3.219 7.6 12.006 11.204 19.663 7.96 7.628-3.23 11.191-12.034 7.96-19.662zm-179.645-29.149c-57.897 0-105 47.103-105 105s47.103 105 105 105 105-47.103 105-105-47.103-105-105-105zm0 150c-24.813 0-45-20.187-45-45s20.187-45 45-45 45 20.187 45 45-20.187 45-45 45z" fill="url(#SVGID_2_)" data-original="url(#SVGID_2_)"></path></g></g></g></g></svg>